<?xml version="1.0" encoding="UTF-8" standalone="no"?>
<!-- Created with Inkscape (http://www.inkscape.org/) -->

<svg
   xmlns:dc="http://purl.org/dc/elements/1.1/"
   xmlns:cc="http://creativecommons.org/ns#"
   xmlns:rdf="http://www.w3.org/1999/02/22-rdf-syntax-ns#"
   xmlns:svg="http://www.w3.org/2000/svg"
   xmlns="http://www.w3.org/2000/svg"
   xmlns:xlink="http://www.w3.org/1999/xlink"
   xmlns:sodipodi="http://sodipodi.sourceforge.net/DTD/sodipodi-0.dtd"
   xmlns:inkscape="http://www.inkscape.org/namespaces/inkscape"
   width="744.09448819"
   height="1052.3622047"
   id="svg2"
   version="1.1"
   inkscape:version="0.48.3.1 r9886"
   sodipodi:docname="butterflynet.svg">
  <defs
     id="defs4" />
  <sodipodi:namedview
     id="base"
     pagecolor="#ffffff"
     bordercolor="#666666"
     borderopacity="1.0"
     inkscape:pageopacity="0.0"
     inkscape:pageshadow="2"
     inkscape:zoom="0.49497475"
     inkscape:cx="412.43032"
     inkscape:cy="486.59745"
     inkscape:document-units="px"
     inkscape:current-layer="layer1"
     showgrid="false"
     inkscape:window-width="2560"
     inkscape:window-height="1399"
     inkscape:window-x="0"
     inkscape:window-y="0"
     inkscape:window-maximized="1" />
  <metadata
     id="metadata7">
    <rdf:RDF>
      <cc:Work
         rdf:about="">
        <dc:format>image/svg+xml</dc:format>
        <dc:type
           rdf:resource="http://purl.org/dc/dcmitype/StillImage" />
        <dc:title></dc:title>
      </cc:Work>
    </rdf:RDF>
  </metadata>
  <g
     inkscape:label="Layer 1"
     inkscape:groupmode="layer"
     id="layer1">
    <path
       sodipodi:type="arc"
       style="fill:none;stroke:#000000;stroke-width:10;stroke-miterlimit:4;stroke-opacity:1;stroke-dasharray:none"
       id="path2985"
       sodipodi:cx="326.78436"
       sodipodi:cy="313.43561"
       sodipodi:rx="72.225906"
       sodipodi:ry="159.09903"
       d="m 399.01027,313.43561 a 72.225906,159.09903 0 1 1 -144.45181,0 72.225906,159.09903 0 1 1 144.45181,0 z"
       transform="translate(-168.69548,-4.0406102)" />
    <path
       style="fill:none;stroke:#000000;stroke-width:15;stroke-linecap:butt;stroke-linejoin:miter;stroke-miterlimit:4;stroke-opacity:1;stroke-dasharray:none"
       d="m 154.55333,470.51432 -2.0203,239.40615"
       id="path3755"
       inkscape:connector-curvature="0" />
    <path
       style="fill:none;stroke:#000000;stroke-width:1px;stroke-linecap:butt;stroke-linejoin:miter;stroke-opacity:1"
       d="M 155.56349,153.32642 C 436.3859,95.747722 683.87327,454.35188 683.87327,454.35188"
       id="path4216"
       inkscape:connector-curvature="0"
       sodipodi:nodetypes="cc" />
    <path
       style="fill:none;stroke:#000000;stroke-width:1px;stroke-linecap:butt;stroke-linejoin:miter;stroke-opacity:1"
       d="M 157.5838,470.51432 C 457.5991,330.10312 684.88343,456.37218 684.88343,456.37218"
       id="path4218"
       inkscape:connector-curvature="0"
       sodipodi:nodetypes="cc" />
    <path
       style="fill:none;stroke:#000000;stroke-width:1px;stroke-linecap:butt;stroke-linejoin:miter;stroke-opacity:1"
       d="M 224.25387,227.06755 C 441.43667,189.6919 680.84282,453.34172 680.84282,453.34172"
       id="path4242"
       inkscape:connector-curvature="0"
       sodipodi:nodetypes="cc" />
    <path
       style="fill:none;stroke:#000000;stroke-width:1px;stroke-linecap:butt;stroke-linejoin:miter;stroke-opacity:1"
       d="m 229.30463,337.17418 c 203.04066,-51.51778 451.53819,117.1777 451.53819,117.1777"
       id="path4244"
       inkscape:connector-curvature="0"
       sodipodi:nodetypes="cc" />
    <path
       transform="translate(-86.873124,-21.213203)"
       d="m 376.78691,313.43561 a 50.002552,144.95689 0 1 1 -100.0051,0 50.002552,144.95689 0 1 1 100.0051,0 z"
       sodipodi:ry="144.95689"
       sodipodi:rx="50.002552"
       sodipodi:cy="313.43561"
       sodipodi:cx="326.78436"
       id="path4246"
       style="fill:none;stroke:#000000;stroke-width:1;stroke-miterlimit:4;stroke-opacity:1;stroke-dasharray:none"
       sodipodi:type="arc" />
    <path
       sodipodi:type="arc"
       style="fill:none;stroke:#000000;stroke-width:1;stroke-miterlimit:4;stroke-opacity:1;stroke-dasharray:none"
       id="path4248"
       sodipodi:cx="326.78436"
       sodipodi:cy="313.43561"
       sodipodi:rx="35.860416"
       sodipodi:ry="118.69294"
       d="m 362.64478,313.43561 a 35.860416,118.69294 0 1 1 -71.72083,0 35.860416,118.69294 0 1 1 71.72083,0 z"
       transform="translate(20.203054,-22.223356)" />
    <path
       transform="translate(227.28433,48.487322)"
       d="m 343.45188,313.43561 a 16.667519,52.022873 0 1 1 -33.33504,0 16.667519,52.022873 0 1 1 33.33504,0 z"
       sodipodi:ry="52.022873"
       sodipodi:rx="16.667519"
       sodipodi:cy="313.43561"
       sodipodi:cx="326.78436"
       id="path4250"
       style="fill:none;stroke:#000000;stroke-width:1;stroke-miterlimit:4;stroke-opacity:1;stroke-dasharray:none"
       sodipodi:type="arc" />
    <path
       style="fill:none;stroke:#000000;stroke-width:1px;stroke-linecap:butt;stroke-linejoin:miter;stroke-opacity:1"
       d="M 97.984797,236.15893 C 398.0001,98.778182 682.86312,456.37218 682.86312,456.37218"
       id="path4252"
       inkscape:connector-curvature="0"
       sodipodi:nodetypes="cc" />
    <path
       style="fill:none;stroke:#000000;stroke-width:1px;stroke-linecap:butt;stroke-linejoin:miter;stroke-opacity:1"
       d="M 89.903577,353.33662 C 400.02041,192.72236 682.86312,457.38233 682.86312,457.38233"
       id="path4254"
       inkscape:connector-curvature="0"
       sodipodi:nodetypes="cc" />
    <path
       transform="translate(103.03556,-4.04061)"
       d="m 352.54325,313.43561 a 25.75889,95.459427 0 1 1 -51.51778,0 25.75889,95.459427 0 1 1 51.51778,0 z"
       sodipodi:ry="95.459427"
       sodipodi:rx="25.75889"
       sodipodi:cy="313.43561"
       sodipodi:cx="326.78436"
       id="path4275"
       style="fill:none;stroke:#000000;stroke-width:1;stroke-miterlimit:4;stroke-opacity:1;stroke-dasharray:none"
       sodipodi:type="arc" />
    <path
       sodipodi:type="arc"
       style="fill:none;stroke:#000000;stroke-width:1;stroke-miterlimit:4;stroke-opacity:1;stroke-dasharray:none"
       id="path4277"
       sodipodi:cx="326.78436"
       sodipodi:cy="313.43561"
       sodipodi:rx="20.708128"
       sodipodi:ry="75.256378"
       d="m 347.49249,313.43561 a 20.708128,75.256378 0 1 1 -41.41626,0 20.708128,75.256378 0 1 1 41.41626,0 z"
       transform="translate(167.68533,19.192899)" />
    <path
       style="fill:none;stroke:#000000;stroke-width:1px;stroke-linecap:butt;stroke-linejoin:miter;stroke-opacity:1"
       d="M 105.05586,409.90516 C 357.594,267.47365 683.87327,457.38233 683.87327,457.38233"
       id="path4281"
       inkscape:connector-curvature="0" />
    <path
       style="fill:none;stroke:#000000;stroke-width:1px;stroke-linecap:butt;stroke-linejoin:miter;stroke-opacity:1"
       d="m 217.1828,415.96608 c 163.64471,-75.76144 467.70063,40.4061 467.70063,40.4061"
       id="path4283"
       inkscape:connector-curvature="0" />
    <path
       style="fill:none;stroke:#000000;stroke-width:1px;stroke-linecap:butt;stroke-linejoin:miter;stroke-opacity:1"
       d="M 231.32493,281.61579 C 498.00521,245.2503 682.86312,454.35188 682.86312,454.35188"
       id="path4285"
       inkscape:connector-curvature="0"
       sodipodi:nodetypes="cc" />
    <path
       style="fill:none;stroke:#000000;stroke-width:1px;stroke-linecap:butt;stroke-linejoin:miter;stroke-opacity:1"
       d="M 84.852814,286.66655 C 392.94934,138.17413 682.86312,457.38233 682.86312,457.38233"
       id="path4287"
       inkscape:connector-curvature="0"
       sodipodi:nodetypes="cc" />
    <path
       style="fill:none;stroke:#000000;stroke-width:1px;stroke-linecap:butt;stroke-linejoin:miter;stroke-opacity:1"
       d="M 200.0102,178.58023 C 427.29452,145.2452 685.89358,458.39249 685.89358,458.39249"
       id="path4289"
       inkscape:connector-curvature="0"
       sodipodi:nodetypes="cc" />
    <path
       style="fill:none;stroke:#000000;stroke-width:1px;stroke-linecap:butt;stroke-linejoin:miter;stroke-opacity:1"
       d="M 113.13709,193.73252 C 405.07117,75.544672 680.84282,456.37218 680.84282,456.37218"
       id="path4291"
       inkscape:connector-curvature="0"
       sodipodi:nodetypes="cc" />
    <path
       style="fill:none;stroke:#000000;stroke-width:1px;stroke-linecap:butt;stroke-linejoin:miter;stroke-opacity:1"
       d="m 377.14286,516.29075 c -0.82688,13.03049 25.57766,27.84337 24.84414,33.97151 -4.82471,1.67541 -1.38856,14.2019 -6.73632,6.33272 -5.57232,-6.08992 -10.87122,-12.34562 -16.28218,-18.55845 -4.05978,-7.66424 -11.65984,-11.63521 -17.16727,-17.90093 -5.81982,-7.91716 -13.10558,-14.43836 -19.65837,-21.70199 -8.44571,-5.7072 -15.75555,-13.13045 -25.39199,-16.87169 -6.77626,-3.53276 -13.37172,-7.8093 -20.7717,-10.44666 -8.08059,-3.26829 -17.09986,-1.97482 -25.62203,-2.32451 -8.41063,4.56358 -8.45159,17.56677 -1.60197,23.73939 4.19312,6.24822 6.59545,13.46055 10.53054,19.83204 1.81418,9.10983 -0.61034,18.85367 2.5701,27.5833 1.95457,8.61517 4.76368,17.03495 8.28763,25.1109 3.01229,8.4055 10.08742,9.01878 17.61159,6.63517 5.45993,0.15448 15.18745,-0.70771 18.00634,0.5808 -4.01017,8.24102 -12.35359,12.09298 -17.3074,19.35415 -5.5386,5.68997 -5.88586,14.50795 -2.70761,21.50389 2.21272,7.48814 7.69298,13.28423 12.53281,18.93737 3.63605,7.5084 8.99168,14.52067 15.07279,19.95748 7.16954,2.05711 10.01431,10.75398 18.48631,9.529 7.82466,-1.15193 12.01308,-9.97467 19.33027,-12.74 7.2829,-5.42117 13.37123,-12.24476 19.65895,-18.73286 5.4588,-6.83783 10.31331,-14.23247 12.90893,-22.63375 0.98672,-2.61202 2.67668,-4.82084 3.04929,-7.58545"
       id="path4357"
       inkscape:connector-curvature="0"
       sodipodi:nodetypes="cccccccccccccccccccccccc" />
    <use
       x="0"
       y="0"
       xlink:href="#path4357"
       id="use4366"
       transform="matrix(-1,0,0,1,813.81694,0.07142863)"
       width="744.09448"
       height="1052.3622" />
    <path
       style="fill:none;stroke:#000000;stroke-width:1px;stroke-linecap:butt;stroke-linejoin:miter;stroke-opacity:1"
       d="m 401.78571,549.86218 c 2.67858,-4.82143 7.32143,-3.57143 9.82143,0"
       id="path4370"
       inkscape:connector-curvature="0"
       sodipodi:nodetypes="cc" />
    <path
       style="fill:#f0265f;fill-opacity:0.7241379;stroke:#000000;stroke-width:0.17857143000000000;stroke-linecap:butt;stroke-linejoin:miter;stroke-miterlimit:4;stroke-opacity:1;stroke-dasharray:none;stroke-dashoffset:0"
       d="m 462.20199,661.01448 c -2.75675,-0.32366 -5.1889,-1.69416 -9.03145,-5.08916 -1.31163,-1.15885 -2.91877,-2.57907 -3.57143,-3.15601 -1.92262,-1.69963 -3.77804,-3.01797 -5.29877,-3.76499 -3.05521,-1.50078 -8.02458,-5.9498 -16.76269,-15.00744 -4.39662,-4.5574 -6.31527,-6.90402 -9.34427,-11.42857 -3.07554,-4.59407 -5.75144,-9.83928 -7.01472,-13.75 -0.22208,-0.6875 -0.95635,-2.42914 -1.63171,-3.87032 -0.67536,-1.44117 -1.40708,-3.18893 -1.62606,-3.88392 -0.333,-1.0569 -0.46173,-1.26362 -0.78689,-1.26362 -0.21381,0 -0.51586,-0.0488 -0.67121,-0.10839 -0.18675,-0.0717 -0.28247,-0.009 -0.28247,0.1842 0,0.54624 -0.72678,2.45301 -1.86685,4.89786 -0.62505,1.34037 -1.41731,3.24061 -1.76058,4.22276 -2.01021,5.75135 -5.16619,11.37011 -10.03695,17.86924 -1.51012,2.01498 -3.2916,4.01053 -7.09401,7.94643 -7.71819,7.98916 -12.84951,12.58378 -15.58089,13.95122 -2.46896,1.23607 -3.77239,2.23055 -8.50685,6.49054 -1.31437,1.18264 -2.85496,2.49392 -3.42352,2.91394 -3.30169,2.43911 -6.85965,3.38713 -9.81906,2.61629 -2.10091,-0.54722 -3.74498,-1.62915 -7.79536,-5.12995 -2.38494,-2.06134 -3.57647,-2.87734 -5.28803,-3.62137 -1.55192,-0.67466 -2.90945,-1.84422 -5.6403,-4.85936 -4.02622,-4.44535 -6.7874,-8.34456 -9.52395,-13.44929 -0.87521,-1.63261 -1.58871,-2.6231 -3.45167,-4.79165 -5.63315,-6.55719 -7.9094,-10.0878 -9.85979,-15.29319 -1.90601,-5.08691 -2.22085,-6.66432 -2.08504,-10.44642 0.10426,-2.90373 0.4667,-4.5726 1.45991,-6.72229 1.48535,-3.21483 5.11386,-7.4573 10.93985,-12.7909 3.45604,-3.16396 6.12028,-5.91886 7.20795,-7.45323 0.90977,-1.28342 2.48229,-3.95622 2.48229,-4.21915 0,-0.0926 -0.54241,-0.32424 -1.20536,-0.51481 -1.09758,-0.31551 -1.92959,-0.35181 -9.30498,-0.40603 l -8.09963,-0.0596 -1.7218,0.44777 c -6.33698,1.64799 -10.77273,0.67558 -13.5063,-2.96087 -1.06156,-1.41219 -1.1538,-1.60057 -3.0129,-6.15304 -2.78801,-6.8271 -5.03575,-13.64238 -6.70456,-20.32862 -0.39222,-1.57143 -0.82984,-3.18706 -0.97249,-3.59029 -0.31031,-0.87711 -0.76096,-3.04617 -1.01634,-4.89185 -0.10193,-0.73661 -0.25485,-4.91518 -0.33983,-9.28572 -0.19807,-10.18698 -0.34006,-11.31236 -1.73486,-13.75 -0.53387,-0.93303 -2.4043,-4.58928 -4.1565,-8.125 -3.62708,-7.319 -4.83914,-9.41608 -6.59161,-11.40469 -3.33867,-3.78854 -4.56416,-9.41475 -3.12925,-14.36634 0.78617,-2.71289 2.18408,-4.80471 4.26426,-6.38095 l 1.07143,-0.81186 8.21429,0.0761 c 8.74421,0.081 10.00399,0.18072 13.62857,1.07846 2.77722,0.68786 7.1337,2.40653 10.94177,4.31662 0.92381,0.46337 4.2257,2.23778 7.33753,3.94313 3.11183,1.70535 6.39454,3.42014 7.2949,3.81065 2.93017,1.27088 7.25182,3.82494 10.46817,6.18658 0.77027,0.56558 3.21315,2.41387 5.42863,4.10731 2.21547,1.69343 4.92234,3.71907 6.01525,4.50142 1.56447,1.1199 2.68273,2.15685 5.25758,4.87533 1.79875,1.89909 4.39546,4.62162 5.77046,6.05007 4.33948,4.50819 6.92157,7.41733 9.19304,10.35745 1.83181,2.37104 3.65449,4.20589 7.68196,7.7333 5.99506,5.2507 8.3734,7.76547 10.14564,10.72758 0.72844,1.21751 6.26941,7.72847 13.15691,15.46015 1.96484,2.20567 3.97423,4.52815 4.4653,5.16107 0.98384,1.26803 1.54015,1.73634 2.2678,1.90909 0.81173,0.1927 1.27689,-0.4649 1.65239,-2.33604 0.90275,-4.49838 1.38583,-5.68186 2.60294,-6.37686 0.55488,-0.31685 0.70656,-0.5094 0.70764,-0.89835 8.9e-4,-0.33252 0.25055,-0.76644 0.7603,-1.3216 1.43566,-1.56355 2.9802,-1.87193 4.87825,-0.97399 1.08749,0.51447 2.93425,2.17084 2.93425,2.63173 0,0.13147 0.22915,0.35753 0.50921,0.50236 0.79472,0.41096 1.59259,1.43989 1.88805,2.43482 0.14836,0.49956 0.47678,1.92703 0.72983,3.17216 0.25305,1.24513 0.60524,2.46476 0.78263,2.71029 0.72628,1.00525 1.77529,0.58623 3.26351,-1.30356 0.55688,-0.70715 1.99144,-2.36761 3.1879,-3.68992 5.30982,-5.86833 13.59202,-15.58359 14.54734,-17.06445 2.09926,-3.25413 4.28181,-5.57791 9.39991,-10.00821 3.99477,-3.45793 6.454,-5.89499 8.09611,-8.02314 1.95759,-2.53702 4.97728,-5.98605 8.208,-9.375 1.6385,-1.71875 4.60178,-4.83969 6.58509,-6.93543 2.48992,-2.63107 4.07578,-4.14752 5.12385,-4.89957 0.83482,-0.59902 3.84781,-2.86201 6.69552,-5.02885 7.52795,-5.72809 12.13518,-8.69583 15.91597,-10.25224 0.69971,-0.28805 4.03453,-2.03445 7.41071,-3.8809 11.41373,-6.24222 16.00405,-8.08998 22.20995,-8.94024 1.37275,-0.18807 4.2843,-0.29833 9.66823,-0.36613 l 7.70394,-0.097 0.77165,0.46015 c 0.42439,0.25308 1.24418,0.92575 1.82175,1.49482 5.05468,4.98041 4.85498,14.47784 -0.42354,20.14182 -1.26434,1.35666 -2.70602,3.90298 -6.33239,11.18442 -1.81989,3.65418 -3.70313,7.33347 -4.18497,8.1762 -0.8263,1.44516 -0.89276,1.65908 -1.16976,3.76438 -0.20488,1.55714 -0.3379,4.58112 -0.43986,10 -0.15632,8.30575 -0.35038,10.48553 -1.18443,13.30357 -0.23255,0.78571 -0.79052,2.875 -1.23995,4.64286 -1.03792,4.08278 -2.6363,9.33607 -4.00642,13.16776 -1.6082,4.49747 -4.21668,10.74621 -5.01079,12.00359 -2.70345,4.28058 -7.35477,5.55599 -13.971,3.83087 -1.2858,-0.33526 -1.99114,-0.3651 -9.375,-0.39666 -7.09802,-0.0303 -8.13332,10e-4 -9.32389,0.28245 -1.98082,0.46824 -1.94975,0.41376 -1.10672,1.94054 1.65913,3.00472 4.06249,5.8228 8.071,9.46373 3.94038,3.57905 6.61116,6.26823 8.10075,8.15659 0.79906,1.01296 1.7542,2.21831 2.12256,2.67858 0.94416,1.17974 2.19744,3.79588 2.6251,5.47969 1.08059,4.25456 0.73954,8.58299 -1.02828,13.05066 -0.38539,0.97392 -0.80282,2.0922 -0.92766,2.48505 -0.40188,1.26471 -2.08215,4.50218 -3.31338,6.38403 -1.47235,2.25042 -2.98737,4.19439 -6.15816,7.90169 -1.7483,2.04412 -2.64841,3.26365 -3.16318,4.28571 -2.63287,5.22743 -6.71057,10.81021 -11.42805,15.64618 -2.23936,2.29559 -2.6702,2.6558 -3.57204,2.98634 -1.53367,0.56212 -3.00257,1.49868 -4.97117,3.16953 -5.11354,4.34015 -6.21808,5.09479 -8.29583,5.66793 -1.30742,0.36066 -2.341,0.43207 -3.79042,0.26191 l 0,0 z"
       id="path4372"
       inkscape:connector-curvature="0" />
  </g>
</svg>
